# xmcd
#
# Track frame offsets: 
#        150
#        12529
#        26201
#        43542
#        59548
#        72075
#        88003
#        101159
#        105961
#        119246
#        137737
#        152078
#        167546
#        190877
#        206844
#        241830
#
# Disc length: 3437 seconds
#
# Revision: 0
# Processed by: cddbd v1.5.2PL0 Copyright (c) Steve Scherf et al.
# Submitted via: ExactAudioCopy v1.0b3
#
DISCID=e20d6b10
DTITLE=Asaf Avidan and the Mojos - Asaf Avidan and the Mojos - The Reckoni
DTITLE=ng
DYEAR=1900
DGENRE=Blues
TTITLE0=Maybe You Are
TTITLE1=Hangwoman
TTITLE2=Her Lies
TTITLE3=Weak
TTITLE4=Reckoning Song
TTITLE5=Sweat and Tears
TTITLE6=Rubberband Girl
TTITLE7=A Phoenix Is Born
TTITLE8=Over You Blues
TTITLE9=Empty Handed Saturday Blues
TTITLE10=A Ghost Before The Wall
TTITLE11=Growing Tall
TTITLE12=Little More Time
TTITLE13=Devil's Dance
TTITLE14=Of Scorpions and Bells
TTITLE15=One Day - Reckoning Song (Wankelmut Remix) (Radio Edit)
EXTD=
EXTT0=
EXTT1=
EXTT2=
EXTT3=
EXTT4=
EXTT5=
EXTT6=
EXTT7=
EXTT8=
EXTT9=
EXTT10=
EXTT11=
EXTT12=
EXTT13=
EXTT14=
EXTT15=
PLAYORDER=
